<svg width="110" height="109" xmlns="http://www.w3.org/2000/svg" xmlns:xlink="http://www.w3.org/1999/xlink" overflow="hidden"><defs><clipPath id="clip0"><rect x="477" y="512" width="110" height="109"/></clipPath></defs><g clip-path="url(#clip0)" transform="translate(-477 -512)"><path d="M47.6875 7.94792 61.3125 7.94792 61.3125 57.9062 47.6875 57.9062Z" fill="#AEB4B7" transform="matrix(1.00917 0 0 1 477 512)"/><path d="M79.2521 22.5948 71.4177 33.7219C79.025 39.0583 84.0208 47.9146 84.0208 57.9062 84.0208 74.1427 70.7365 87.4271 54.5 87.4271 38.2635 87.4271 24.9792 74.1427 24.9792 57.9062 24.9792 47.9146 29.975 39.0583 37.5823 33.7219L29.7479 22.5948C18.6208 30.3156 11.3542 43.2594 11.3542 57.9062 11.3542 81.75 30.6562 101.052 54.5 101.052 78.3438 101.052 97.6458 81.75 97.6458 57.9062 97.6458 43.2594 90.3792 30.3156 79.2521 22.5948Z" fill="#AEB4B7" transform="matrix(1.00917 0 0 1 477 512)"/></g></svg>